<?xml version="1.0" encoding="UTF-8" standalone="no"?>
<svg
   xmlns:dc="http://purl.org/dc/elements/1.1/"
   xmlns:cc="http://creativecommons.org/ns#"
   xmlns:rdf="http://www.w3.org/1999/02/22-rdf-syntax-ns#"
   xmlns:svg="http://www.w3.org/2000/svg"
   xmlns="http://www.w3.org/2000/svg"
   xmlns:sodipodi="http://sodipodi.sourceforge.net/DTD/sodipodi-0.dtd"
   xmlns:inkscape="http://www.inkscape.org/namespaces/inkscape"
   version="1.1"
   viewBox="0 0 444 444"
   enable-background="new 0 0 444 444"
   id="svg4549"
   sodipodi:docname="global.svg"
   inkscape:version="0.92.1 r15371">
  <metadata
     id="metadata4555">
    <rdf:RDF>
      <cc:Work
         rdf:about="">
        <dc:format>image/svg+xml</dc:format>
        <dc:type
           rdf:resource="http://purl.org/dc/dcmitype/StillImage" />
      </cc:Work>
    </rdf:RDF>
  </metadata>
  <defs
     id="defs4553" />
  <sodipodi:namedview
     pagecolor="#ffffff"
     bordercolor="#666666"
     borderopacity="1"
     objecttolerance="10"
     gridtolerance="10"
     guidetolerance="10"
     inkscape:pageopacity="0"
     inkscape:pageshadow="2"
     inkscape:window-width="2560"
     inkscape:window-height="1503"
     id="namedview4551"
     showgrid="false"
     inkscape:measure-start="0,0"
     inkscape:measure-end="0,0"
     inkscape:zoom="2.9439393"
     inkscape:cx="222.491"
     inkscape:cy="261.66854"
     inkscape:window-x="0"
     inkscape:window-y="27"
     inkscape:window-maximized="1"
     inkscape:current-layer="svg4549" />
  <g
     id="g4600">
    <path
       sodipodi:nodetypes="cssssscssc"
       inkscape:connector-curvature="0"
       id="path4575"
       d="m 364.12947,177.65312 c 0,10.37792 -0.48144,3.80573 -7.21515,-1.5856 -5.48216,-4.38929 -16.02472,-6.73601 -26.37406,-8.76182 -26.88249,-5.26205 -62.19197,17.51636 -74.33316,33.85058 -10.16619,13.67714 -21.4078,53.22914 -9.60665,79.953 9.61679,21.77735 42.40911,30.35744 39.18561,47.72308 -5.68803,30.64263 -71.27716,39.71293 -97.60282,39.71293 C 88.009215,368.54529 6.802124,287.03404 6.802124,186.48482 6.8021223,85.935599 88.009214,4.4243491 188.18324,4.4243469 c 100.17403,0 175.94623,72.6795471 175.94623,173.2287731 z"
       style="opacity:0.37398376;fill:#0000ff;fill-opacity:1;stroke:#ff00ff;stroke-width:1.01697743;stroke-opacity:1" />
    <ellipse
       ry="83.001396"
       rx="80.283951"
       cy="248.1369"
       cx="321.62225"
       id="path4586"
       style="opacity:0.37398376;fill:#ffd42a;fill-opacity:1;stroke:#ff00ff;stroke-width:1.10117102;stroke-opacity:1" />
    <ellipse
       ry="55.53783"
       rx="56.047352"
       cy="246.43849"
       cx="322.69687"
       id="path4582"
       style="opacity:0.37398376;fill:#00b9ff;fill-opacity:1;stroke:#ff00ff;stroke-opacity:1" />
    <path
       d="m 386.83,265.712 c 4.699,-17.269 2.392,-35.333 -6.496,-50.866 -18.347,-32.066 -59.361,-43.226 -91.427,-24.879 -32.065,18.347 -43.226,59.361 -24.879,91.427 8.888,15.533 23.292,26.676 40.561,31.375 5.852,1.592 11.794,2.38 17.699,2.38 11.521,0 22.897,-3 33.167,-8.876 15.533,-8.888 26.676,-23.293 31.375,-40.561 z m -19.515,-43.417 c 6.898,12.056 8.688,26.076 5.042,39.478 -0.57,2.095 -1.276,4.128 -2.085,6.107 -11.089,-6.27 -23.415,-11.711 -36.795,-16.188 -4.431,-1.483 -8.945,-2.847 -13.528,-4.102 3.372,-16.47 5.382,-33.767 5.938,-51.31 16.689,1.219 32.51,10.431 41.428,26.015 z m -70.958,-19.309 c 4.64,-2.655 9.52,-4.51 14.482,-5.616 -0.588,15.969 -2.434,31.688 -5.469,46.668 -11.091,-2.379 -22.553,-4.121 -34.317,-5.213 2.661,-14.571 11.471,-27.924 25.304,-35.839 z m -19.309,70.959 c -3.652,-6.384 -5.788,-13.225 -6.539,-20.108 10.79,1.033 21.298,2.643 31.467,4.814 -1.309,4.958 -2.753,9.81 -4.332,14.535 -1.945,5.814 -4.084,11.419 -6.382,16.759 -5.727,-4.232 -10.572,-9.635 -14.214,-16 z m 70.958,19.308 c -12.055,6.898 -26.076,8.689 -39.479,5.042 -1.354,-0.368 -2.679,-0.801 -3.985,-1.27 2.654,-6.07 5.111,-12.457 7.327,-19.083 1.709,-5.115 3.27,-10.367 4.68,-15.734 4.122,1.139 8.18,2.374 12.167,3.709 12.375,4.141 23.74,9.142 33.93,14.882 -4.009,4.961 -8.937,9.191 -14.64,12.454 z"
       id="path4543"
       inkscape:connector-curvature="0" />
    <rect
       transform="matrix(0.48457783,0.87474815,-0.85149958,0.52435528,0,0)"
       y="-173.60661"
       x="464.58951"
       height="20.149399"
       width="133.60164"
       id="rect4592"
       style="opacity:0.37398376;fill:#ffd42a;fill-opacity:1;stroke:#ff00ff;stroke-width:0.79071188;stroke-opacity:1" />
    <path
       style="fill:#000000;fill-opacity:1"
       d="m 441.26,412.368 -56.789,-99.25 c 11.703,-11.175 20.19,-25.353 24.548,-41.368 6.312,-23.196 3.213,-47.46 -8.726,-68.325 C 393.291,191.188 383.829,181.22 372.885,173.781 366.493,76.751 286.245,0.75 188.505,0.015 c -0.952,-0.02 -1.926,-0.02 -2.878,0 -49.435,0.372 -95.849,19.899 -130.7,54.989 -34.881,35.12 -54.091,81.726 -54.091,131.23 0,49.509 19.21,96.117 54.091,131.239 34.848,35.089 81.264,54.616 130.696,54.99 0.477,0.01 0.955,0.011 1.443,0.011 0.488,0 0.966,-10e-4 1.443,-0.011 40.358,-0.307 78.499,-13.229 110.557,-37.413 7.564,2.012 15.389,3.049 23.267,3.049 8.122,0 16.298,-1.111 24.304,-3.371 l 56.805,99.278 c 2.89,5.051 7.573,8.674 13.188,10.202 1.902,0.518 3.835,0.774 5.755,0.774 3.746,0 7.445,-0.975 10.784,-2.886 5.051,-2.89 8.674,-7.573 10.202,-13.188 1.529,-5.615 0.779,-11.489 -2.111,-16.54 z M 179.57,254.323 c -26.887,0.636 -53.23,4.685 -77.039,11.834 -6.677,-22.339 -10.473,-47.095 -11.1,-72.423 H 179.57 Z M 91.431,178.734 c 0.627,-25.323 4.423,-50.075 11.101,-72.415 23.808,7.147 50.151,11.196 77.038,11.832 v 60.583 z M 194.57,15.547 c 28.998,4.208 55.915,32.667 72.275,76.542 -22.31,6.65 -47.01,10.431 -72.275,11.057 z m -15,-0.001 v 87.599 C 154.305,102.519 129.605,98.737 107.297,92.087 123.649,48.213 150.564,19.753 179.57,15.546 Z M 76.426,178.734 h -60.42 c 1.499,-34.978 13.47,-68.094 34.402,-95.699 11.2,7.161 23.892,13.374 37.887,18.542 -7.171,23.831 -11.232,50.22 -11.869,77.157 z m -0.001,15 c 0.637,26.943 4.698,53.334 11.868,77.166 -14.001,5.172 -26.694,11.385 -37.887,18.54 C 29.475,261.833 17.504,228.715 16.005,193.733 h 60.42 z M 179.57,269.33 v 87.604 c -28.995,-4.205 -55.912,-32.666 -72.273,-76.545 22.306,-6.651 47.003,-10.433 72.273,-11.059 z m 15,87.592 v -87.599 c 14.008,0.343 27.809,1.656 41.184,3.901 1.946,6.699 4.701,13.275 8.315,19.591 3.021,5.28 6.505,10.133 10.363,14.547 -16.174,28.666 -37.542,46.313 -59.862,49.56 z m 38.12,-99.362 c -12.446,-1.845 -25.201,-2.942 -38.121,-3.244 v -60.581 h 55.912 C 236.707,211.947 230.33,234.87 232.69,257.56 Z m 32.172,-78.825 H 194.57 v -60.583 c 26.89,-0.636 53.237,-4.685 77.049,-11.834 5.733,19.118 9.301,39.633 10.619,61.162 -1.598,0.793 -3.183,1.631 -4.751,2.528 -4.524,2.588 -8.734,5.516 -12.625,8.727 z m 32.016,-16.985 c -1.615,-21.094 -5.316,-41.262 -11.024,-60.174 14.008,-5.173 26.709,-11.393 37.91,-18.561 17.685,23.385 29.511,51.484 33.258,82.172 -18.763,-7.857 -40.02,-9.333 -60.144,-3.437 z m 17.244,-90.389 c -9.799,6.106 -20.86,11.461 -33.04,15.987 -8.993,-24.28 -21.253,-44.867 -35.722,-59.84 -1.202,-1.244 -2.42,-2.439 -3.648,-3.602 28.081,9.434 52.94,25.943 72.41,47.455 z M 132.455,23.864 c -1.241,1.174 -2.469,2.388 -3.683,3.644 C 114.305,42.482 102.047,63.069 93.058,87.346 80.9,82.828 69.854,77.483 60.061,71.389 61.848,69.417 63.682,67.476 65.57,65.576 84.648,46.366 107.497,32.231 132.455,23.864 Z M 60.061,301.089 c 9.787,-6.09 20.834,-11.435 32.999,-15.957 8.993,24.281 21.252,44.868 35.717,59.84 1.22,1.263 2.458,2.473 3.705,3.653 -24.968,-8.366 -47.826,-22.505 -66.911,-41.721 -1.889,-1.901 -3.723,-3.842 -5.51,-5.815 z m 181.596,47.545 c 8.782,-8.291 16.784,-18.52 23.908,-30.553 5.154,4.161 10.724,7.7 16.581,10.6 -12.666,8.494 -26.247,15.174 -40.489,19.953 z m 80.651,-25.531 c -26.039,-0.002 -51.388,-13.562 -65.22,-37.736 -20.537,-35.893 -8.045,-81.802 27.848,-102.339 11.719,-6.705 24.497,-9.888 37.119,-9.888 26.039,0 51.388,13.562 65.22,37.736 9.949,17.387 12.531,37.607 7.271,56.937 -5.26,19.329 -17.732,35.453 -35.119,45.402 -11.719,6.704 -24.497,9.889 -37.119,9.888 z M 428.899,424.97 c -0.477,1.749 -1.604,3.208 -3.178,4.108 -1.572,0.9 -3.401,1.134 -5.151,0.658 -1.749,-0.476 -3.207,-1.604 -4.107,-3.177 l -55.606,-97.182 c 2.028,-0.967 4.038,-2.008 6.02,-3.142 1.977,-1.131 3.883,-2.349 5.751,-3.611 l 55.613,97.195 c 0.9,1.573 1.133,3.402 0.658,5.151 z"
       id="path4545"
       inkscape:connector-curvature="0" />
  </g>
</svg>
